<svg xmlns="http://www.w3.org/2000/svg" version="1.1" xmlns:xlink="http://www.w3.org/1999/xlink" xmlns:svgjs="http://svgjs.com/svgjs" width="512" height="512" x="0" y="0" viewBox="0 0 24 24" style="enable-background:new 0 0 512 512" xml:space="preserve" class=""><g><g xmlns="http://www.w3.org/2000/svg" fill="rgb(0,0,0)"><path d="m22.0011 12.4h-5.8c-1.9 0-3.33-1.43-3.33-3.32999v-3.22003c0-1.9 1.43-3.32996 3.33-3.32996h3.22c1.83 0 3.33 1.48996 3.33 3.32996v5.80002c0 .42-.34.75-.75.75zm-5.8-8.36997c-1.06 0-1.83.76996-1.83 1.82996v3.22003c0 1.05998.77 1.82998 1.83 1.82998h5.05v-5.05001c0-1.01-.82-1.82996-1.83-1.82996z" fill="#fd5115" data-original="#000000" class=""></path><path d="m17.4705 21.4698c-.26 0-.51-.1299-.65-.3699-.21-.36-.09-.82.26-1.03 3.23-1.92 4.17-2.72 4.17-8.42 0-.41.34-.75.75-.75s.75.34.75.75c0 6.25-1.27 7.56-4.9 9.71-.12.08-.25.1099-.38.1099z" fill="#fd5115" data-original="#000000" class=""></path><path d="m10.3702 12.4h-5.79997c-1.9 0-3.33-1.43-3.33-3.32999v-3.22003c0-1.9 1.43-3.32996 3.33-3.32996h3.23c1.83 0 3.32997 1.48996 3.32997 3.32996v5.80002c-.01.42-.34.75-.76.75zm-5.78997-8.36997c-1.06 0-1.83.76996-1.83 1.82996v3.22003c0 1.05998.77 1.82998 1.83 1.82998h5.05v-5.05001c0-1.01-.81999-1.82996-1.83-1.82996z" fill="#fd5115" data-original="#000000" class=""></path><path d="m5.83964 21.4698c-.26 0-.51-.1299-.65-.3699-.21-.36-.09-.82.26-1.03 3.23-1.92 4.17-2.72 4.17-8.42 0-.41.34-.75.74996-.75.41 0 .75.34.75.75 0 6.25-1.26996 7.56-4.89996 9.71-.12.08-.25.1099-.38.1099z" fill="#fd5115" data-original="#000000" class=""></path></g></g></svg>